<svg height="1em" width="1em"  viewBox="0 0 128 128" fill="none" xmlns="http://www.w3.org/2000/svg">
<style>rect{fill: #fc5e97;} path{fill: #666;} @media(prefers-color-scheme: dark){rect {fill: #f5581a;}}</style>
<path d="M34.18 92.546C30.384 92.546 26.952 91.896 23.884 90.596C20.868 89.296 18.476 87.424 16.708 84.98C14.94 82.536 14.03 79.65 13.978 76.322H25.678C25.834 78.558 26.614 80.326 28.018 81.626C29.474 82.926 31.45 83.576 33.946 83.576C36.494 83.576 38.496 82.978 39.952 81.782C41.408 80.534 42.136 78.922 42.136 76.946C42.136 75.334 41.642 74.008 40.654 72.968C39.666 71.928 38.418 71.122 36.91 70.55C35.454 69.926 33.426 69.25 30.826 68.522C27.29 67.482 24.404 66.468 22.168 65.48C19.984 64.44 18.086 62.906 16.474 60.878C14.914 58.798 14.134 56.042 14.134 52.61C14.134 49.386 14.94 46.578 16.552 44.186C18.164 41.794 20.426 39.974 23.338 38.726C26.25 37.426 29.578 36.776 33.322 36.776C38.938 36.776 43.488 38.154 46.972 40.91C50.508 43.614 52.458 47.41 52.822 52.298H40.81C40.706 50.426 39.9 48.892 38.392 47.696C36.936 46.448 34.986 45.824 32.542 45.824C30.41 45.824 28.694 46.37 27.394 47.462C26.146 48.554 25.522 50.14 25.522 52.22C25.522 53.676 25.99 54.898 26.926 55.886C27.914 56.822 29.11 57.602 30.514 58.226C31.97 58.798 33.998 59.474 36.598 60.254C40.134 61.294 43.02 62.334 45.256 63.374C47.492 64.414 49.416 65.974 51.028 68.054C52.64 70.134 53.446 72.864 53.446 76.244C53.446 79.156 52.692 81.86 51.184 84.356C49.676 86.852 47.466 88.854 44.554 90.362C41.642 91.818 38.184 92.546 34.18 92.546ZM100.821 53.936C99.5733 51.648 97.8573 49.906 95.6733 48.71C93.4893 47.514 90.9413 46.916 88.0293 46.916C84.8053 46.916 81.9453 47.644 79.4493 49.1C76.9533 50.556 75.0033 52.636 73.5993 55.34C72.1953 58.044 71.4933 61.164 71.4933 64.7C71.4933 68.34 72.1953 71.512 73.5993 74.216C75.0553 76.92 77.0573 79 79.6053 80.456C82.1533 81.912 85.1173 82.64 88.4973 82.64C92.6573 82.64 96.0633 81.548 98.7152 79.364C101.367 77.128 103.109 74.034 103.941 70.082H85.2213V61.736H114.705V71.252C113.977 75.048 112.417 78.558 110.025 81.782C107.633 85.006 104.539 87.606 100.743 89.582C96.9993 91.506 92.7873 92.468 88.1073 92.468C82.8553 92.468 78.0973 91.298 73.8333 88.958C69.6213 86.566 66.2933 83.264 63.8493 79.052C61.4573 74.84 60.2613 70.056 60.2613 64.7C60.2613 59.344 61.4573 54.56 63.8493 50.348C66.2933 46.084 69.6213 42.782 73.8333 40.442C78.0973 38.05 82.8293 36.854 88.0293 36.854C94.1653 36.854 99.4953 38.362 104.019 41.378C108.543 44.342 111.663 48.528 113.379 53.936H100.821Z"/>
<rect x="10" y="101" width="108" height="11"/>
</svg>
